<svg xmlns="http://www.w3.org/2000/svg" viewBox="0 0 400 300" width="400" height="300">
  <rect width="400" height="300" fill="#fef9e8"></rect>
  <g opacity="0.4">
    <circle cx="18" cy="18" r="1.5" fill="#0a3d2a"></circle><circle cx="54" cy="18" r="1.5" fill="#0a3d2a"></circle><circle cx="90" cy="18" r="1.5" fill="#0a3d2a"></circle><circle cx="126" cy="18" r="1.5" fill="#0a3d2a"></circle><circle cx="162" cy="18" r="1.5" fill="#0a3d2a"></circle><circle cx="198" cy="18" r="1.5" fill="#0a3d2a"></circle><circle cx="234" cy="18" r="1.5" fill="#0a3d2a"></circle><circle cx="270" cy="18" r="1.5" fill="#0a3d2a"></circle><circle cx="306" cy="18" r="1.5" fill="#0a3d2a"></circle><circle cx="342" cy="18" r="1.5" fill="#0a3d2a"></circle><circle cx="378" cy="18" r="1.5" fill="#0a3d2a"></circle><circle cx="414" cy="18" r="1.5" fill="#0a3d2a"></circle><circle cx="18" cy="54" r="1.5" fill="#0a3d2a"></circle><circle cx="54" cy="54" r="1.5" fill="#0a3d2a"></circle><circle cx="90" cy="54" r="1.5" fill="#0a3d2a"></circle><circle cx="126" cy="54" r="1.5" fill="#0a3d2a"></circle><circle cx="162" cy="54" r="1.5" fill="#0a3d2a"></circle><circle cx="198" cy="54" r="1.5" fill="#0a3d2a"></circle><circle cx="234" cy="54" r="1.5" fill="#0a3d2a"></circle><circle cx="270" cy="54" r="1.5" fill="#0a3d2a"></circle><circle cx="306" cy="54" r="1.5" fill="#0a3d2a"></circle><circle cx="342" cy="54" r="1.5" fill="#0a3d2a"></circle><circle cx="378" cy="54" r="1.5" fill="#0a3d2a"></circle><circle cx="414" cy="54" r="1.5" fill="#0a3d2a"></circle><circle cx="18" cy="90" r="1.5" fill="#0a3d2a"></circle><circle cx="54" cy="90" r="1.5" fill="#0a3d2a"></circle><circle cx="90" cy="90" r="1.5" fill="#0a3d2a"></circle><circle cx="126" cy="90" r="1.5" fill="#0a3d2a"></circle><circle cx="162" cy="90" r="1.5" fill="#0a3d2a"></circle><circle cx="198" cy="90" r="1.5" fill="#0a3d2a"></circle><circle cx="234" cy="90" r="1.5" fill="#0a3d2a"></circle><circle cx="270" cy="90" r="1.5" fill="#0a3d2a"></circle><circle cx="306" cy="90" r="1.5" fill="#0a3d2a"></circle><circle cx="342" cy="90" r="1.5" fill="#0a3d2a"></circle><circle cx="378" cy="90" r="1.5" fill="#0a3d2a"></circle><circle cx="414" cy="90" r="1.5" fill="#0a3d2a"></circle><circle cx="18" cy="126" r="1.5" fill="#0a3d2a"></circle><circle cx="54" cy="126" r="1.5" fill="#0a3d2a"></circle><circle cx="90" cy="126" r="1.5" fill="#0a3d2a"></circle><circle cx="126" cy="126" r="1.5" fill="#0a3d2a"></circle><circle cx="162" cy="126" r="1.5" fill="#0a3d2a"></circle><circle cx="198" cy="126" r="1.5" fill="#0a3d2a"></circle><circle cx="234" cy="126" r="1.5" fill="#0a3d2a"></circle><circle cx="270" cy="126" r="1.5" fill="#0a3d2a"></circle><circle cx="306" cy="126" r="1.5" fill="#0a3d2a"></circle><circle cx="342" cy="126" r="1.5" fill="#0a3d2a"></circle><circle cx="378" cy="126" r="1.5" fill="#0a3d2a"></circle><circle cx="414" cy="126" r="1.5" fill="#0a3d2a"></circle><circle cx="18" cy="162" r="1.5" fill="#0a3d2a"></circle><circle cx="54" cy="162" r="1.5" fill="#0a3d2a"></circle><circle cx="90" cy="162" r="1.5" fill="#0a3d2a"></circle><circle cx="126" cy="162" r="1.5" fill="#0a3d2a"></circle><circle cx="162" cy="162" r="1.5" fill="#0a3d2a"></circle><circle cx="198" cy="162" r="1.5" fill="#0a3d2a"></circle><circle cx="234" cy="162" r="1.5" fill="#0a3d2a"></circle><circle cx="270" cy="162" r="1.5" fill="#0a3d2a"></circle><circle cx="306" cy="162" r="1.5" fill="#0a3d2a"></circle><circle cx="342" cy="162" r="1.5" fill="#0a3d2a"></circle><circle cx="378" cy="162" r="1.5" fill="#0a3d2a"></circle><circle cx="414" cy="162" r="1.5" fill="#0a3d2a"></circle><circle cx="18" cy="198" r="1.5" fill="#0a3d2a"></circle><circle cx="54" cy="198" r="1.5" fill="#0a3d2a"></circle><circle cx="90" cy="198" r="1.5" fill="#0a3d2a"></circle><circle cx="126" cy="198" r="1.5" fill="#0a3d2a"></circle><circle cx="162" cy="198" r="1.5" fill="#0a3d2a"></circle><circle cx="198" cy="198" r="1.5" fill="#0a3d2a"></circle><circle cx="234" cy="198" r="1.5" fill="#0a3d2a"></circle><circle cx="270" cy="198" r="1.5" fill="#0a3d2a"></circle><circle cx="306" cy="198" r="1.5" fill="#0a3d2a"></circle><circle cx="342" cy="198" r="1.5" fill="#0a3d2a"></circle><circle cx="378" cy="198" r="1.5" fill="#0a3d2a"></circle><circle cx="414" cy="198" r="1.5" fill="#0a3d2a"></circle><circle cx="18" cy="234" r="1.5" fill="#0a3d2a"></circle><circle cx="54" cy="234" r="1.5" fill="#0a3d2a"></circle><circle cx="90" cy="234" r="1.5" fill="#0a3d2a"></circle><circle cx="126" cy="234" r="1.5" fill="#0a3d2a"></circle><circle cx="162" cy="234" r="1.5" fill="#0a3d2a"></circle><circle cx="198" cy="234" r="1.5" fill="#0a3d2a"></circle><circle cx="234" cy="234" r="1.5" fill="#0a3d2a"></circle><circle cx="270" cy="234" r="1.5" fill="#0a3d2a"></circle><circle cx="306" cy="234" r="1.5" fill="#0a3d2a"></circle><circle cx="342" cy="234" r="1.5" fill="#0a3d2a"></circle><circle cx="378" cy="234" r="1.5" fill="#0a3d2a"></circle><circle cx="414" cy="234" r="1.5" fill="#0a3d2a"></circle><circle cx="18" cy="270" r="1.5" fill="#0a3d2a"></circle><circle cx="54" cy="270" r="1.5" fill="#0a3d2a"></circle><circle cx="90" cy="270" r="1.5" fill="#0a3d2a"></circle><circle cx="126" cy="270" r="1.5" fill="#0a3d2a"></circle><circle cx="162" cy="270" r="1.5" fill="#0a3d2a"></circle><circle cx="198" cy="270" r="1.5" fill="#0a3d2a"></circle><circle cx="234" cy="270" r="1.5" fill="#0a3d2a"></circle><circle cx="270" cy="270" r="1.5" fill="#0a3d2a"></circle><circle cx="306" cy="270" r="1.5" fill="#0a3d2a"></circle><circle cx="342" cy="270" r="1.5" fill="#0a3d2a"></circle><circle cx="378" cy="270" r="1.5" fill="#0a3d2a"></circle><circle cx="414" cy="270" r="1.5" fill="#0a3d2a"></circle>
  </g>
  <g transform="translate(95 150) rotate(-8)">
    <rect x="-50" y="-75" width="100" height="150" rx="8" fill="#fffaf0" stroke="#18181b" stroke-width="3"></rect>
    <rect x="-50" y="-75" width="100" height="32" fill="#0a3d2a"></rect>
    <text text-anchor="middle" y="-50" font-family="&#34;JetBrains Mono&#34;, ui-monospace, monospace" font-size="10" fill="#fef9e8" letter-spacing="2">BRA</text>
    <text text-anchor="middle" y="20" font-family="&#34;Archivo Black&#34;, &#34;Arial Black&#34;, system-ui, sans-serif" font-size="56" fill="#0a3d2a" opacity="0.4">10</text>
    <text text-anchor="middle" y="65" font-family="&#34;Archivo Black&#34;, &#34;Arial Black&#34;, system-ui, sans-serif" font-size="11" fill="#18181b">SUA FIGURINHA</text>
  </g>
  <g transform="translate(305 150) rotate(8)">
    <rect x="-50" y="-75" width="100" height="150" rx="8" fill="#fffaf0" stroke="#18181b" stroke-width="3"></rect>
    <rect x="-50" y="-75" width="100" height="32" fill="#b91c1c"></rect>
    <text text-anchor="middle" y="-50" font-family="&#34;JetBrains Mono&#34;, ui-monospace, monospace" font-size="10" fill="#fef9e8" letter-spacing="2">ARG</text>
    <text text-anchor="middle" y="20" font-family="&#34;Archivo Black&#34;, &#34;Arial Black&#34;, system-ui, sans-serif" font-size="56" fill="#b91c1c" opacity="0.4">7</text>
    <text text-anchor="middle" y="65" font-family="&#34;Archivo Black&#34;, &#34;Arial Black&#34;, system-ui, sans-serif" font-size="11" fill="#18181b">DO AMIGO</text>
  </g>
  <g transform="translate(200 150)">
    <circle r="42" fill="#fbbf24" stroke="#18181b" stroke-width="3"></circle>
    <path d="M-20 -8 L8 -8 L8 -16 L24 0 L8 16 L8 8 L-20 8 Z" fill="#18181b"></path>
  </g>
  <g transform="translate(200 60)">
    <rect x="-58" y="-16" width="116" height="32" rx="4" fill="#0a3d2a"></rect>
    <text text-anchor="middle" y="6" font-family="&#34;Archivo Black&#34;, &#34;Arial Black&#34;, system-ui, sans-serif" font-size="16" fill="#fef9e8" letter-spacing="3">TROCA</text>
  </g>
</svg>