<svg xmlns="http://www.w3.org/2000/svg" viewBox="0 0 400 300" width="400" height="300">
  <defs>
    <linearGradient id="bg3" x1="0" y1="0" x2="0" y2="1">
      <stop offset="0%" stop-color="#1a6d3f"></stop>
      <stop offset="100%" stop-color="#0a3d2a"></stop>
    </linearGradient>
  </defs>
  <rect width="400" height="300" fill="url(#bg3)"></rect>
  <g transform="translate(200 160)">
    <path d="M-160 -80 L0 -90 L160 -80 L160 80 L0 90 L-160 80 Z" fill="#fef9e8" stroke="#18181b" stroke-width="3"></path>
    <line x1="0" y1="-90" x2="0" y2="90" stroke="#18181b" stroke-width="2" opacity="0.5"></line>
    <g transform="translate(-74 -44)">
          <rect x="-10" y="-18" width="20" height="32" rx="2" fill="#fffaf0" stroke="#18181b" stroke-width="0.8"></rect>
          <rect x="-10" y="-18" width="20" height="9" fill="#0a3d2a"></rect>
            <text text-anchor="middle" y="6" font-family="&#34;Archivo Black&#34;, &#34;Arial Black&#34;, system-ui, sans-serif" font-size="9" fill="#18181b">24</text>
        </g><g transform="translate(-50 -44)">
          <rect x="-10" y="-18" width="20" height="32" rx="2" fill="#d9cfa8" stroke="#18181b" stroke-width="0.8"></rect>
          
        </g><g transform="translate(-26 -44)">
          <rect x="-10" y="-18" width="20" height="32" rx="2" fill="#fffaf0" stroke="#18181b" stroke-width="0.8"></rect>
          <rect x="-10" y="-18" width="20" height="9" fill="#fbbf24"></rect>
            <text text-anchor="middle" y="6" font-family="&#34;Archivo Black&#34;, &#34;Arial Black&#34;, system-ui, sans-serif" font-size="9" fill="#18181b">10</text>
        </g><g transform="translate(26 -44)">
          <rect x="-10" y="-18" width="20" height="32" rx="2" fill="#fffaf0" stroke="#18181b" stroke-width="0.8"></rect>
          <rect x="-10" y="-18" width="20" height="9" fill="#0a3d2a"></rect>
            <text text-anchor="middle" y="6" font-family="&#34;Archivo Black&#34;, &#34;Arial Black&#34;, system-ui, sans-serif" font-size="9" fill="#18181b">4</text>
        </g><g transform="translate(50 -44)">
          <rect x="-10" y="-18" width="20" height="32" rx="2" fill="#d9cfa8" stroke="#18181b" stroke-width="0.8"></rect>
          
        </g><g transform="translate(74 -44)">
          <rect x="-10" y="-18" width="20" height="32" rx="2" fill="#fffaf0" stroke="#18181b" stroke-width="0.8"></rect>
          <rect x="-10" y="-18" width="20" height="9" fill="#fbbf24"></rect>
            <text text-anchor="middle" y="6" font-family="&#34;Archivo Black&#34;, &#34;Arial Black&#34;, system-ui, sans-serif" font-size="9" fill="#18181b">18</text>
        </g><g transform="translate(-74 0)">
          <rect x="-10" y="-18" width="20" height="32" rx="2" fill="#d9cfa8" stroke="#18181b" stroke-width="0.8"></rect>
          
        </g><g transform="translate(-50 0)">
          <rect x="-10" y="-18" width="20" height="32" rx="2" fill="#fffaf0" stroke="#18181b" stroke-width="0.8"></rect>
          <rect x="-10" y="-18" width="20" height="9" fill="#fbbf24"></rect>
            <text text-anchor="middle" y="6" font-family="&#34;Archivo Black&#34;, &#34;Arial Black&#34;, system-ui, sans-serif" font-size="9" fill="#18181b">14</text>
        </g><g transform="translate(-26 0)">
          <rect x="-10" y="-18" width="20" height="32" rx="2" fill="#d9cfa8" stroke="#18181b" stroke-width="0.8"></rect>
          
        </g><g transform="translate(26 0)">
          <rect x="-10" y="-18" width="20" height="32" rx="2" fill="#d9cfa8" stroke="#18181b" stroke-width="0.8"></rect>
          
        </g><g transform="translate(50 0)">
          <rect x="-10" y="-18" width="20" height="32" rx="2" fill="#fffaf0" stroke="#18181b" stroke-width="0.8"></rect>
          <rect x="-10" y="-18" width="20" height="9" fill="#fbbf24"></rect>
            <text text-anchor="middle" y="6" font-family="&#34;Archivo Black&#34;, &#34;Arial Black&#34;, system-ui, sans-serif" font-size="9" fill="#18181b">14</text>
        </g><g transform="translate(74 0)">
          <rect x="-10" y="-18" width="20" height="32" rx="2" fill="#d9cfa8" stroke="#18181b" stroke-width="0.8"></rect>
          
        </g><g transform="translate(-74 44)">
          <rect x="-10" y="-18" width="20" height="32" rx="2" fill="#fffaf0" stroke="#18181b" stroke-width="0.8"></rect>
          <rect x="-10" y="-18" width="20" height="9" fill="#fbbf24"></rect>
            <text text-anchor="middle" y="6" font-family="&#34;Archivo Black&#34;, &#34;Arial Black&#34;, system-ui, sans-serif" font-size="9" fill="#18181b">18</text>
        </g><g transform="translate(-50 44)">
          <rect x="-10" y="-18" width="20" height="32" rx="2" fill="#d9cfa8" stroke="#18181b" stroke-width="0.8"></rect>
          
        </g><g transform="translate(-26 44)">
          <rect x="-10" y="-18" width="20" height="32" rx="2" fill="#d9cfa8" stroke="#18181b" stroke-width="0.8"></rect>
          
        </g><g transform="translate(26 44)">
          <rect x="-10" y="-18" width="20" height="32" rx="2" fill="#fffaf0" stroke="#18181b" stroke-width="0.8"></rect>
          <rect x="-10" y="-18" width="20" height="9" fill="#fbbf24"></rect>
            <text text-anchor="middle" y="6" font-family="&#34;Archivo Black&#34;, &#34;Arial Black&#34;, system-ui, sans-serif" font-size="9" fill="#18181b">10</text>
        </g><g transform="translate(50 44)">
          <rect x="-10" y="-18" width="20" height="32" rx="2" fill="#d9cfa8" stroke="#18181b" stroke-width="0.8"></rect>
          
        </g><g transform="translate(74 44)">
          <rect x="-10" y="-18" width="20" height="32" rx="2" fill="#fffaf0" stroke="#18181b" stroke-width="0.8"></rect>
          <rect x="-10" y="-18" width="20" height="9" fill="#0a3d2a"></rect>
            <text text-anchor="middle" y="6" font-family="&#34;Archivo Black&#34;, &#34;Arial Black&#34;, system-ui, sans-serif" font-size="9" fill="#18181b">24</text>
        </g>
  </g>
  <g transform="translate(330 60)">
    <path d="M-14 -16 L14 -16 L18 -10 Q18 6 0 14 Q-18 6 -18 -10 Z" fill="#fbbf24" stroke="#18181b" stroke-width="2"></path>
    <rect x="-8" y="12" width="16" height="6" fill="#fbbf24" stroke="#18181b" stroke-width="2"></rect>
    <rect x="-14" y="18" width="28" height="5" rx="1" fill="#fbbf24" stroke="#18181b" stroke-width="2"></rect>
    <path d="M-18 -12 Q-26 -10 -26 0" fill="none" stroke="#fbbf24" stroke-width="3"></path>
    <path d="M18 -12 Q26 -10 26 0" fill="none" stroke="#fbbf24" stroke-width="3"></path>
  </g>
  <g transform="translate(200 50)">
    <rect x="-78" y="-18" width="156" height="36" rx="4" fill="#fbbf24" stroke="#18181b" stroke-width="2"></rect>
    <text text-anchor="middle" y="7" font-family="&#34;Archivo Black&#34;, &#34;Arial Black&#34;, system-ui, sans-serif" font-size="15" fill="#18181b" letter-spacing="2">faltaUma!</text>
  </g>
</svg>